<?xml version="1.0" encoding="UTF-8"?>
<svg version="1.1" xmlns="http://www.w3.org/2000/svg" width="512" height="512">
<path d="M0 0 C1.01790619 0.00215515 2.03581238 0.0043103 3.08456421 0.00653076 C17.69363523 0.05620146 32.02575853 0.30709809 46.375 3.3125 C47.34985352 3.51117676 48.32470703 3.70985352 49.32910156 3.91455078 C88.38660539 12.08468046 124.82400319 27.71035417 156.375 52.3125 C157.25929688 52.98539063 158.14359375 53.65828125 159.0546875 54.3515625 C174.64487101 66.4551235 189.25704477 80.75418497 201.375 96.3125 C202.52162109 97.71628906 202.52162109 97.71628906 203.69140625 99.1484375 C238.32002637 142.39252491 256.81365997 197.89189907 256.69067383 253.03979492 C256.6875221 255.97938487 256.71104926 258.9179558 256.73632812 261.85742188 C256.78098737 275.23056192 255.57551542 288.12666711 253.375 301.3125 C253.09281616 303.01805054 253.09281616 303.01805054 252.80493164 304.75805664 C245.77946967 343.86954746 228.79665906 381.05202178 204.375 412.3125 C203.61574219 413.28445313 202.85648437 414.25640625 202.07421875 415.2578125 C189.73986402 430.63741644 175.93895499 445.19015196 160.375 457.3125 C159.43914062 458.07691406 158.50328125 458.84132813 157.5390625 459.62890625 C125.58628299 485.2157721 86.41988322 501.72551276 46.375 509.3125 C45.56562988 509.47621094 44.75625977 509.63992188 43.92236328 509.80859375 C13.88110013 515.67977137 -20.7615176 514.58512909 -50.625 508.3125 C-52.14794678 507.99901611 -52.14794678 507.99901611 -53.70166016 507.67919922 C-90.84546555 499.78695344 -125.70945445 483.68345578 -155.625 460.3125 C-156.59695312 459.55324219 -157.56890625 458.79398437 -158.5703125 458.01171875 C-173.94991644 445.67736402 -188.50265196 431.87645499 -200.625 416.3125 C-201.77162109 414.90871094 -201.77162109 414.90871094 -202.94140625 413.4765625 C-228.5282721 381.52378299 -245.03801276 342.35738322 -252.625 302.3125 C-252.78871094 301.50312988 -252.95242187 300.69375977 -253.12109375 299.85986328 C-258.59069558 271.87335724 -258.46977511 238.21828161 -252.625 210.3125 C-252.42632324 209.33764648 -252.22764648 208.36279297 -252.02294922 207.35839844 C-243.85281954 168.30089461 -228.22714583 131.86349681 -203.625 100.3125 C-202.95210937 99.42820312 -202.27921875 98.54390625 -201.5859375 97.6328125 C-189.4823765 82.04262899 -175.18331503 67.43045523 -159.625 55.3125 C-158.68914062 54.54808594 -157.75328125 53.78367188 -156.7890625 52.99609375 C-112.48174637 17.51607068 -56.33754016 -0.21452306 0 0 Z " fill="#D6F2FE" transform="translate(255.625,-0.3125)"/>
<path d="M0 0 C1.01790619 0.00215515 2.03581238 0.0043103 3.08456421 0.00653076 C17.69363523 0.05620146 32.02575853 0.30709809 46.375 3.3125 C47.34985352 3.51117676 48.32470703 3.70985352 49.32910156 3.91455078 C88.38660539 12.08468046 124.82400319 27.71035417 156.375 52.3125 C157.25929688 52.98539063 158.14359375 53.65828125 159.0546875 54.3515625 C174.64487101 66.4551235 189.25704477 80.75418497 201.375 96.3125 C202.52162109 97.71628906 202.52162109 97.71628906 203.69140625 99.1484375 C238.32002637 142.39252491 256.81365997 197.89189907 256.69067383 253.03979492 C256.6875221 255.97938487 256.71104926 258.9179558 256.73632812 261.85742188 C256.78098737 275.23056192 255.57551542 288.12666711 253.375 301.3125 C253.09281616 303.01805054 253.09281616 303.01805054 252.80493164 304.75805664 C245.77946967 343.86954746 228.79665906 381.05202178 204.375 412.3125 C203.61574219 413.28445313 202.85648437 414.25640625 202.07421875 415.2578125 C189.73986402 430.63741644 175.93895499 445.19015196 160.375 457.3125 C159.43914062 458.07691406 158.50328125 458.84132813 157.5390625 459.62890625 C125.58628299 485.2157721 86.41988322 501.72551276 46.375 509.3125 C45.56562988 509.47621094 44.75625977 509.63992188 43.92236328 509.80859375 C13.88110013 515.67977137 -20.7615176 514.58512909 -50.625 508.3125 C-52.14794678 507.99901611 -52.14794678 507.99901611 -53.70166016 507.67919922 C-90.84546555 499.78695344 -125.70945445 483.68345578 -155.625 460.3125 C-156.59695312 459.55324219 -157.56890625 458.79398437 -158.5703125 458.01171875 C-173.94991644 445.67736402 -188.50265196 431.87645499 -200.625 416.3125 C-201.77162109 414.90871094 -201.77162109 414.90871094 -202.94140625 413.4765625 C-228.5282721 381.52378299 -245.03801276 342.35738322 -252.625 302.3125 C-252.78871094 301.50312988 -252.95242187 300.69375977 -253.12109375 299.85986328 C-258.59069558 271.87335724 -258.46977511 238.21828161 -252.625 210.3125 C-252.42632324 209.33764648 -252.22764648 208.36279297 -252.02294922 207.35839844 C-243.85281954 168.30089461 -228.22714583 131.86349681 -203.625 100.3125 C-202.95210937 99.42820312 -202.27921875 98.54390625 -201.5859375 97.6328125 C-189.4823765 82.04262899 -175.18331503 67.43045523 -159.625 55.3125 C-158.68914062 54.54808594 -157.75328125 53.78367188 -156.7890625 52.99609375 C-112.48174637 17.51607068 -56.33754016 -0.21452306 0 0 Z M-90.625 29.3125 C-91.30014648 29.5707959 -91.97529297 29.8290918 -92.67089844 30.09521484 C-116.39108862 39.36072817 -138.40073891 53.72086066 -157.625 70.3125 C-158.39328125 70.96992187 -159.1615625 71.62734375 -159.953125 72.3046875 C-172.76188585 83.54416308 -184.53869343 95.57418699 -194.625 109.3125 C-195.47260437 110.4414452 -196.32026066 111.57035143 -197.16796875 112.69921875 C-218.94787827 142.08107352 -234.1505491 177.32408064 -240.625 213.3125 C-240.85147217 214.56401855 -240.85147217 214.56401855 -241.08251953 215.84082031 C-243.38787708 229.26511381 -243.9121339 242.6000105 -243.9375 256.1875 C-243.94108521 256.95470367 -243.94467041 257.72190735 -243.94836426 258.51235962 C-243.9866592 273.72991379 -242.79111945 288.76598771 -239.375 303.625 C-239.15811523 304.58591553 -238.94123047 305.54683105 -238.71777344 306.53686523 C-229.92738048 344.67754251 -213.99984489 379.9087184 -189.07421875 410.296875 C-187.58049585 412.13603621 -186.13171471 414.01452285 -184.76953125 415.953125 C-182.3045568 419.30221143 -180.96740509 421.08967902 -176.75390625 421.7890625 C-173.99198387 421.81017273 -171.36179929 421.6688283 -168.625 421.3125 C-168.56441406 420.45785156 -168.50382812 419.60320312 -168.44140625 418.72265625 C-168.31572266 417.06556641 -168.31572266 417.06556641 -168.1875 415.375 C-168.10628906 414.27285156 -168.02507812 413.17070312 -167.94140625 412.03515625 C-167.625 409.3125 -167.625 409.3125 -166.625 408.3125 C-161.98484675 408.0583445 -157.33378694 408.12727202 -152.6875 408.125 C-151.37330078 408.11275391 -150.05910156 408.10050781 -148.70507812 408.08789062 C-147.45275391 408.08595703 -146.20042969 408.08402344 -144.91015625 408.08203125 C-143.75394775 408.07792236 -142.59773926 408.07381348 -141.40649414 408.06958008 C-138.625 408.3125 -138.625 408.3125 -136.625 410.3125 C-136.30615234 412.19189453 -136.30615234 412.19189453 -136.2109375 414.4453125 C-136.15752197 415.53416748 -136.15752197 415.53416748 -136.10302734 416.64501953 C-136.06902832 417.56653809 -136.0350293 418.48805664 -136 419.4375 C-135.87625 422.36625 -135.7525 425.295 -135.625 428.3125 C-129.025 428.3125 -122.425 428.3125 -115.625 428.3125 C-115.58761719 425.09886719 -115.55023438 421.88523437 -115.51171875 418.57421875 C-115.46552566 415.46648293 -115.4142839 412.35886862 -115.36254883 409.2512207 C-115.32926678 407.08918625 -115.30124515 404.92706423 -115.27856445 402.76489258 C-115.24507892 399.65928782 -115.192766 396.55448802 -115.13671875 393.44921875 C-115.12713387 391.99596443 -115.12713387 391.99596443 -115.11735535 390.51335144 C-115.08766411 389.16229057 -115.08766411 389.16229057 -115.05737305 387.78393555 C-115.04071846 386.59479805 -115.04071846 386.59479805 -115.02372742 385.38163757 C-114.52617456 382.79965985 -113.68706595 381.900392 -111.625 380.3125 C-109.32836914 379.92431641 -109.32836914 379.92431641 -106.66015625 379.9140625 C-105.69529297 379.91019531 -104.73042969 379.90632813 -103.73632812 379.90234375 C-102.73021484 379.91394531 -101.72410156 379.92554688 -100.6875 379.9375 C-99.68525391 379.92589844 -98.68300781 379.91429687 -97.65039062 379.90234375 C-96.20116211 379.90814453 -96.20116211 379.90814453 -94.72265625 379.9140625 C-93.84101807 379.91744629 -92.95937988 379.92083008 -92.05102539 379.92431641 C-89.06423173 380.40222744 -87.81676415 381.24221726 -85.625 383.3125 C-85.10601807 385.53349304 -85.10601807 385.53349304 -85.07910156 388.15112305 C-85.05938293 389.1319133 -85.03966431 390.11270355 -85.01934814 391.12321472 C-85.01750519 392.70771172 -85.01750519 392.70771172 -85.015625 394.32421875 C-84.99908875 395.40758011 -84.98255249 396.49094147 -84.96551514 397.60713196 C-84.9168831 401.07147809 -84.89562985 404.53538481 -84.875 408 C-84.84685314 410.3470275 -84.81692754 412.69403439 -84.78515625 415.04101562 C-84.71112021 420.7980969 -84.65956693 426.55505382 -84.625 432.3125 C-82.315 432.3125 -80.005 432.3125 -77.625 432.3125 C-77.60518066 431.62623535 -77.58536133 430.9399707 -77.56494141 430.23291016 C-77.46989055 427.13404221 -77.36013153 424.03586706 -77.25 420.9375 C-77.20359375 419.31714844 -77.20359375 419.31714844 -77.15625 417.6640625 C-77.09824219 416.1171875 -77.09824219 416.1171875 -77.0390625 414.5390625 C-77.0076416 413.58596191 -76.9762207 412.63286133 -76.94384766 411.65087891 C-76.625 409.3125 -76.625 409.3125 -74.625 407.3125 C-72.37841797 406.99365234 -72.37841797 406.99365234 -69.6171875 406.8984375 C-68.63105469 406.85976563 -67.64492187 406.82109375 -66.62890625 406.78125 C-65.08009766 406.73484375 -65.08009766 406.73484375 -63.5 406.6875 C-62.45972656 406.64882813 -61.41945312 406.61015625 -60.34765625 406.5703125 C-57.77361689 406.47585234 -55.19958845 406.39028786 -52.625 406.3125 C-52.62445523 405.61527958 -52.62391047 404.91805916 -52.62334919 404.19971085 C-52.60838683 387.24071118 -52.56596237 370.28200353 -52.49290943 353.32315445 C-52.45824497 345.12198152 -52.43290202 336.92097692 -52.42944336 328.71972656 C-52.42640546 321.57212452 -52.40593887 314.42482215 -52.36447543 307.27733588 C-52.34312741 303.49212401 -52.33055378 299.70733837 -52.33884621 295.92206573 C-52.3463754 292.35954521 -52.33061174 288.79788908 -52.29693985 285.23552704 C-52.28475838 283.30402376 -52.29731141 281.37241421 -52.31056213 279.44091797 C-52.29527466 278.29109436 -52.27998718 277.14127075 -52.26423645 275.956604 C-52.26147107 274.95738041 -52.25870569 273.95815681 -52.25585651 272.92865372 C-51.39685263 269.36637584 -49.54069669 268.38990368 -46.625 266.3125 C-45.90365956 264.18729975 -45.90365956 264.18729975 -46.02905273 261.8828125 C-46.0223204 261.0151123 -46.01558807 260.14741211 -46.00865173 259.25341797 C-46.03337303 257.85953857 -46.03337303 257.85953857 -46.05859375 256.4375 C-46.05295914 255.47602051 -46.04732452 254.51454102 -46.04151917 253.52392578 C-46.02505463 250.45295509 -46.04062666 247.38342105 -46.0625 244.3125 C-46.07908455 241.24171366 -46.08820479 238.17187493 -46.07276917 235.10107422 C-46.06347725 233.19124055 -46.07269319 231.28120723 -46.10240173 229.37158203 C-46.07595043 222.96076835 -46.07595043 222.96076835 -43.84790039 219.7578125 C-41.625 218.3125 -41.625 218.3125 -37.625 217.3125 C-37.295 207.0825 -36.965 196.8525 -36.625 186.3125 C-32.17 185.3225 -32.17 185.3225 -27.625 184.3125 C-27.55152344 182.83136719 -27.55152344 182.83136719 -27.4765625 181.3203125 C-27.36441406 179.39832031 -27.36441406 179.39832031 -27.25 177.4375 C-27.14558594 175.52324219 -27.14558594 175.52324219 -27.0390625 173.5703125 C-26.625 170.3125 -26.625 170.3125 -24.625 168.3125 C-22.2421875 167.8984375 -22.2421875 167.8984375 -19.5 167.6875 C-18.13488281 167.57535156 -18.13488281 167.57535156 -16.7421875 167.4609375 C-16.04351562 167.41195312 -15.34484375 167.36296875 -14.625 167.3125 C-14.61286972 166.02250595 -14.61286972 166.02250595 -14.60049438 164.70645142 C-14.52264573 156.6130644 -14.43538489 148.51984595 -14.33747292 140.4266758 C-14.28746601 136.26560442 -14.24113659 132.10455899 -14.203125 127.94335938 C-14.16632738 123.92971133 -14.11998297 119.916278 -14.06693649 115.90281296 C-14.04836304 114.36940644 -14.03326604 112.83595384 -14.02165604 111.30247879 C-14.00484359 109.15927254 -13.97582212 107.01656119 -13.94384766 104.87353516 C-13.93052399 103.65219879 -13.91720032 102.43086243 -13.9034729 101.17251587 C-13.625 98.3125 -13.625 98.3125 -11.625 96.3125 C-9.63678687 95.91485737 -7.63555661 95.57474651 -5.625 95.3125 C-5.61286972 94.06009018 -5.61286972 94.06009018 -5.60049438 92.78237915 C-5.52264279 84.92444671 -5.43538107 77.06668781 -5.33747292 69.20897865 C-5.28746793 65.16897662 -5.24113852 61.12900126 -5.203125 57.08886719 C-5.16632492 53.19192462 -5.11997987 49.29520309 -5.06693649 45.39844894 C-5.04836435 43.90970094 -5.03326686 42.42090551 -5.02165604 40.93208694 C-5.00484131 38.85114014 -4.97581943 36.77070267 -4.94384766 34.68994141 C-4.93052399 33.50413483 -4.91720032 32.31832825 -4.9034729 31.09658813 C-4.625 28.3125 -4.625 28.3125 -2.625 26.3125 C3.95192308 26.88942308 3.95192308 26.88942308 5.375 28.3125 C5.4988634 30.3979182 5.55299067 32.48750141 5.58032227 34.57641602 C5.59022186 35.23005127 5.60012146 35.88368652 5.61032104 36.55712891 C5.64201634 38.72685064 5.66672492 40.8965943 5.69140625 43.06640625 C5.71196887 44.56713952 5.73296515 46.0678669 5.75437927 47.56858826 C5.80967155 51.52561693 5.85904911 55.48269849 5.90722656 59.43981934 C5.9573895 63.4749016 6.01310268 67.50990672 6.06835938 71.54492188 C6.1760284 79.46738277 6.27745379 87.38990804 6.375 95.3125 C8.0765625 95.7765625 8.0765625 95.7765625 9.8125 96.25 C13.375 97.3125 13.375 97.3125 14.375 98.3125 C14.49896871 100.45918285 14.5530072 102.60992387 14.58032227 104.76000977 C14.59022186 105.43315216 14.60012146 106.10629456 14.61032104 106.79983521 C14.64201838 109.03448925 14.66672574 111.26916458 14.69140625 113.50390625 C14.71196869 115.04947984 14.73296496 116.59504772 14.75437927 118.14060974 C14.80967337 122.21600732 14.85905013 126.29145625 14.90722656 130.36694336 C14.95738817 134.5226704 15.01310204 138.67832252 15.06835938 142.83398438 C15.17603064 150.9934263 15.27745552 159.15293076 15.375 167.3125 C16.42300781 167.38597656 16.42300781 167.38597656 17.4921875 167.4609375 C18.85730469 167.57308594 18.85730469 167.57308594 20.25 167.6875 C21.15492188 167.75710937 22.05984375 167.82671875 22.9921875 167.8984375 C25.375 168.3125 25.375 168.3125 27.375 170.3125 C27.67559943 172.67759361 27.87015012 175.05691881 28 177.4375 C28.11214844 179.35949219 28.11214844 179.35949219 28.2265625 181.3203125 C28.27554687 182.30773437 28.32453125 183.29515625 28.375 184.3125 C31.345 184.6425 34.315 184.9725 37.375 185.3125 C38.49683708 188.67801123 38.58300968 191.40310232 38.69140625 194.94921875 C38.73330078 196.24794922 38.77519531 197.54667969 38.81835938 198.88476562 C38.85816987 200.25650761 38.89788216 201.62825244 38.9375 203 C38.98070835 204.38347645 39.02432339 205.76694027 39.06835938 207.15039062 C39.17458028 210.53765719 39.27662358 213.92499799 39.375 217.3125 C40.344375 217.76625 41.31375 218.22 42.3125 218.6875 C45.375 220.3125 45.375 220.3125 46.375 222.3125 C46.46746766 223.71095443 46.50012802 225.11362884 46.50097656 226.51513672 C46.50478333 227.38298798 46.50859009 228.25083923 46.51251221 229.14498901 C46.51353943 230.08456451 46.51456665 231.02414001 46.515625 231.9921875 C46.53395033 233.97266778 46.55352039 235.95313685 46.57421875 237.93359375 C46.60321916 241.06318046 46.62500071 244.1920474 46.62548828 247.32177734 C46.62881749 250.33756736 46.66333446 253.35168685 46.703125 256.3671875 C46.69252045 257.77047806 46.69252045 257.77047806 46.68170166 259.20211792 C46.69811707 260.0762735 46.71453247 260.95042908 46.73144531 261.85107422 C46.73509094 262.61781464 46.73873657 263.38455505 46.74249268 264.17453003 C47.21646935 266.58723948 47.21646935 266.58723948 49.87457943 268.08150291 C52.375 270.3125 52.375 270.3125 53.00585651 273.00674057 C53.00862189 274.04283588 53.01138727 275.0789312 53.01423645 276.14642334 C53.02952393 277.33831772 53.0448114 278.5302121 53.06056213 279.75822449 C53.05193649 281.06229752 53.04331085 282.36637054 53.03442383 283.70996094 C53.04287754 285.09971048 53.05352189 286.48944816 53.06619263 287.87916565 C53.09436027 291.64963466 53.09186386 295.41953521 53.08389878 299.19007778 C53.08077575 303.13130032 53.10580204 307.07234116 53.12785339 311.01348877 C53.16532203 318.47553236 53.17744304 325.9373937 53.1804778 333.39952207 C53.18516559 341.89530892 53.21807986 350.39091285 53.25337565 358.88661909 C53.32534458 376.36190517 53.36083117 393.83707488 53.375 411.3125 C57.005 411.3125 60.635 411.3125 64.375 411.3125 C64.66375 410.03375 64.9525 408.755 65.25 407.4375 C65.91602483 404.48796145 66.17702597 403.51047403 68.375 401.3125 C70.5390625 400.8984375 70.5390625 400.8984375 73 400.6875 C74.22589844 400.57535156 74.22589844 400.57535156 75.4765625 400.4609375 C76.10304688 400.41195313 76.72953125 400.36296875 77.375 400.3125 C77.41238281 399.69761719 77.44976562 399.08273437 77.48828125 398.44921875 C77.58689453 397.23685547 77.58689453 397.23685547 77.6875 396 C77.74550781 395.19949219 77.80351562 394.39898437 77.86328125 393.57421875 C78.4837325 390.83191896 79.17710195 390.03358446 81.375 388.3125 C83.59570312 387.92431641 83.59570312 387.92431641 86.15625 387.9140625 C87.08050781 387.91019531 88.00476563 387.90632813 88.95703125 387.90234375 C89.91996094 387.91394531 90.88289063 387.92554688 91.875 387.9375 C92.83792969 387.92589844 93.80085938 387.91429687 94.79296875 387.90234375 C96.17935547 387.90814453 96.17935547 387.90814453 97.59375 387.9140625 C98.8612207 387.91913818 98.8612207 387.91913818 100.15429688 387.92431641 C102.375 388.3125 102.375 388.3125 104.1418457 389.3269043 C106.10865458 392.49381315 105.85674515 395.85933183 105.88671875 399.48046875 C105.90466995 400.27528152 105.92262115 401.0700943 105.94111633 401.88899231 C105.9952697 404.42594101 106.02913028 406.96270107 106.0625 409.5 C106.09566874 411.22072941 106.13015799 412.9414339 106.16601562 414.66210938 C106.25099873 418.87877022 106.31778542 423.09537464 106.375 427.3125 C110.665 427.3125 114.955 427.3125 119.375 427.3125 C119.42398437 426.10851562 119.47296875 424.90453125 119.5234375 423.6640625 C119.59846343 422.08851802 119.67401133 420.51299834 119.75 418.9375 C119.7809375 418.1434375 119.811875 417.349375 119.84375 416.53125 C120.1484375 410.5390625 120.1484375 410.5390625 122.375 408.3125 C125.10934962 408.0061141 127.75779821 407.8011664 130.5 407.6875 C131.25410156 407.64882813 132.00820313 407.61015625 132.78515625 407.5703125 C134.64803184 407.47598969 136.51148255 407.39315338 138.375 407.3125 C138.39481934 406.32330566 138.41463867 405.33411133 138.43505859 404.31494141 C138.51103456 400.65077923 138.59976352 396.98701836 138.69238281 393.32324219 C138.73070585 391.73640862 138.76555288 390.14948719 138.796875 388.5625 C138.84245431 386.28353434 138.90045838 384.00517532 138.9609375 381.7265625 C138.97248871 381.01505035 138.98403992 380.30353821 138.99594116 379.57046509 C139.14725659 374.54024341 139.14725659 374.54024341 141.375 372.3125 C143.32388306 372.07199097 143.32388306 372.07199097 145.73291016 372.08544922 C146.63369293 372.08560028 147.53447571 372.08575134 148.46255493 372.08590698 C149.43655243 372.09622955 150.41054993 372.10655212 151.4140625 372.1171875 C152.41005463 372.1200174 153.40604675 372.12284729 154.43222046 372.12576294 C157.62160118 372.1369816 160.81070378 372.16208919 164 372.1875 C166.15885012 372.19752762 168.31770463 372.20665385 170.4765625 372.21484375 C175.77614926 372.23692644 181.07552744 372.27146775 186.375 372.3125 C186.705 378.5825 187.035 384.8525 187.375 391.3125 C191.1184375 391.621875 191.1184375 391.621875 194.9375 391.9375 C195.70908447 392.02854004 196.48066895 392.11958008 197.27563477 392.21337891 C199.59647685 392.30506503 201.19157133 392.13882378 203.375 391.3125 C206.35584291 388.36198544 208.31577903 384.94505501 210.375 381.3125 C211.22251831 379.85166992 211.22251831 379.85166992 212.0871582 378.36132812 C223.99599674 357.19457375 232.64273013 334.91158507 238.375 311.3125 C238.55901367 310.5690332 238.74302734 309.82556641 238.93261719 309.05957031 C253.66992642 248.43856182 241.40618365 182.9090028 209.58178711 129.76245117 C204.08136617 120.87475907 197.84084982 112.51531418 191.375 104.3125 C190.94670898 103.76561523 190.51841797 103.21873047 190.07714844 102.65527344 C178.26340046 87.71845754 164.45148464 73.7171162 149.03125 62.515625 C147.34096109 61.28777362 145.67040531 60.03597841 144 58.78125 C122.4605296 42.79122327 98.33003584 31.36057067 72.86791992 23.125 C71.25122227 22.59808101 69.63897888 22.05721305 68.0324707 21.5 C59.33862569 18.48816672 50.4239874 16.88623694 41.375 15.3125 C40.04686279 15.07950195 40.04686279 15.07950195 38.69189453 14.84179688 C-5.09880453 7.49164139 -49.36708163 13.44889309 -90.625 29.3125 Z " fill="#353535" transform="translate(255.625,-0.3125)"/>
<path d="M0 0 C8.25 0 16.5 0 25 0 C25.375 8.3125 25.375 8.3125 25.47802734 10.91918945 C25.53144287 11.94338989 25.53144287 11.94338989 25.5859375 12.98828125 C25.6173584 13.68477783 25.6487793 14.38127441 25.68115234 15.09887695 C25.92118253 17.32532739 25.92118253 17.32532739 28 20 C30.77262255 20.38394667 33.34323528 20.60342248 36.125 20.6875 C36.87910156 20.72166016 37.63320313 20.75582031 38.41015625 20.79101562 C40.27291201 20.87354278 42.13643326 20.93844711 44 21 C35.98044005 39.80292305 13.16152771 57.26002232 -3 69 C-4.12562795 69.84291209 -5.25062208 70.68667119 -6.375 71.53125 C-30.03294089 89.09558126 -58.86997064 104.55026241 -88 110 C-88.02505615 109.09644775 -88.0501123 108.19289551 -88.07592773 107.26196289 C-88.17087317 103.9203572 -88.27011621 100.57893748 -88.37231445 97.23754883 C-88.4157163 95.7893576 -88.45738744 94.34111346 -88.49731445 92.89282227 C-88.55489062 90.81510441 -88.61862028 88.73765427 -88.68359375 86.66015625 C-88.72025146 85.40855713 -88.75690918 84.15695801 -88.79467773 82.86743164 C-88.67803906 80.10369496 -88.67803906 80.10369496 -90 79 C-93.96 78.505 -93.96 78.505 -98 78 C-98 65.79 -98 53.58 -98 41 C-87.125 40.6875 -87.125 40.6875 -83.69970703 40.61206055 C-82.81138184 40.57894775 -81.92305664 40.54583496 -81.0078125 40.51171875 C-80.09660645 40.48553467 -79.18540039 40.45935059 -78.24658203 40.43237305 C-77.13452393 40.21834839 -77.13452393 40.21834839 -76 40 C-73.70366176 36.55549263 -73.45983515 34.06187717 -73 30 C-69.37 29.67 -65.74 29.34 -62 29 C-61.67 25.04 -61.34 21.08 -61 17 C-59.35 17 -57.7 17 -56 17 C-55.98541748 18.07483643 -55.97083496 19.14967285 -55.95581055 20.25708008 C-55.8978511 24.24374717 -55.82061871 28.22984801 -55.73754883 32.21606445 C-55.70428828 33.94155693 -55.67625981 35.66715849 -55.65356445 37.39282227 C-55.62003847 39.87303166 -55.56772594 42.3522403 -55.51171875 44.83203125 C-55.50532883 45.60400345 -55.4989389 46.37597565 -55.49235535 47.17134094 C-55.41255416 50.076157 -55.32590565 52.42416019 -53.8762207 54.9855957 C-51.05387021 56.51153797 -48.66217282 56.38928104 -45.46875 56.3984375 C-44.18355469 56.40230469 -42.89835937 56.40617187 -41.57421875 56.41015625 C-40.90567871 56.40387207 -40.23713867 56.39758789 -39.54833984 56.39111328 C-37.5068067 56.37505354 -35.46725292 56.39096671 -33.42578125 56.41015625 C-32.14058594 56.40628906 -30.85539062 56.40242188 -29.53125 56.3984375 C-27.76104492 56.39336182 -27.76104492 56.39336182 -25.95507812 56.38818359 C-23.03349774 56.23171598 -23.03349774 56.23171598 -21.1237793 54.7121582 C-19.17145483 51.73765212 -19.4181086 48.26740996 -19.3125 44.8125 C-19.27833984 44.06291016 -19.24417969 43.31332031 -19.20898438 42.54101562 C-19.12665706 40.69453162 -19.06164719 38.84729006 -19 37 C-17.95199219 36.95101562 -16.90398437 36.90203125 -15.82421875 36.8515625 C-14.44528646 36.77651857 -13.0663815 36.70097143 -11.6875 36.625 C-10.99720703 36.5940625 -10.30691406 36.563125 -9.59570312 36.53125 C-5.93009211 36.31875081 -4.12099208 36.08066139 -1 34 C-0.66207464 31.38322508 -0.51113911 28.99063608 -0.48828125 26.3671875 C-0.46135445 25.23943405 -0.46135445 25.23943405 -0.43388367 24.08889771 C-0.37964219 21.68432244 -0.34584208 19.27994715 -0.3125 16.875 C-0.27933898 15.24606583 -0.24485045 13.6171581 -0.20898438 11.98828125 C-0.12140366 7.99215657 -0.061459 3.99695412 0 0 Z " fill="#4C4C4C" transform="translate(406,382)"/>
<path d="M0 0 C17.16 0 34.32 0 52 0 C52 6.93 52 13.86 52 21 C48.71223958 21.16276042 45.42447917 21.32552083 42.13671875 21.48828125 C38.73624429 22.04302864 38.00863623 22.33278905 36 25 C35.5479857 27.2168486 35.5479857 27.2168486 35.61523914 29.72638988 C35.6057826 30.7042304 35.59632606 31.68207091 35.58658296 32.68954295 C35.59143053 33.766379 35.59627811 34.84321505 35.60127258 35.9526825 C35.59462576 37.09455688 35.58797893 38.23643126 35.58113068 39.4129079 C35.56567261 42.58726526 35.56366846 45.76130827 35.56726015 48.935691 C35.56788258 52.35697684 35.55127731 55.77818342 35.53674316 59.19943237 C35.51392282 65.12857838 35.50206616 71.0576655 35.49761391 76.98685265 C35.4911609 85.55949055 35.46823855 94.13202186 35.44127061 102.70461688 C35.39796753 116.61238912 35.36802091 130.52015687 35.34643555 144.42797852 C35.32543639 157.93971967 35.29817061 171.45142416 35.26245117 184.96313477 C35.26025235 185.79571836 35.25805352 186.62830196 35.25578807 187.48611536 C35.24471868 191.66285961 35.23352582 195.83960353 35.22227156 200.01634729 C35.12903662 234.67753393 35.05768368 269.33873679 35 304 C29.06 304 23.12 304 17 304 C16.99761165 302.56487407 16.99522329 301.12974813 16.99276257 299.65113354 C16.93544269 265.60882324 16.86274071 231.56657799 16.77101372 197.52434258 C16.75974512 193.33727361 16.74860674 189.1502043 16.73754883 184.96313477 C16.73534514 184.12954018 16.73314146 183.29594559 16.730871 182.43709055 C16.69546746 168.92731995 16.67062061 155.4175494 16.64965298 141.90774956 C16.62791523 128.0526158 16.5948842 114.19754241 16.55129844 100.34245998 C16.52474669 91.78833509 16.50707731 83.23428547 16.50065396 74.6801214 C16.49541081 68.81974319 16.47923019 62.95945982 16.45433434 57.09913238 C16.44028229 53.71449408 16.43116222 50.33002568 16.43499184 46.94535637 C16.43663143 43.28093043 16.42005754 39.61703588 16.39872742 35.9526825 C16.40357499 34.87584644 16.40842257 33.79901039 16.41341704 32.68954295 C16.4039605 31.71170244 16.39450396 30.73386193 16.38476086 29.72638988 C16.38286225 28.87999327 16.38096365 28.03359665 16.37900752 27.16155165 C15.90940915 24.48334323 15.16795921 23.60338866 13 22 C9.80754002 21.41907008 9.80754002 21.41907008 6.3125 21.3125 C3.1878125 21.1578125 3.1878125 21.1578125 0 21 C0 14.07 0 7.14 0 0 Z " fill="#C9C9C9" transform="translate(230,196)"/>
<path d="M0 0 C2.31 0 4.62 0 7 0 C7.33 17.16 7.66 34.32 8 52 C12.41375 52.04125 16.8275 52.0825 21.375 52.125 C22.76638184 52.14320801 24.15776367 52.16141602 25.59130859 52.18017578 C26.68266113 52.1851709 27.77401367 52.19016602 28.8984375 52.1953125 C30.01911621 52.20578613 31.13979492 52.21625977 32.29443359 52.22705078 C35.14977843 52.28055323 35.14977843 52.28055323 37 50 C37.37095708 47.57753405 37.37095708 47.57753405 37.4140625 44.7734375 C37.45273438 43.7421875 37.49140625 42.7109375 37.53125 41.6484375 C37.5621875 40.56820312 37.593125 39.48796875 37.625 38.375 C37.66367188 37.28703125 37.70234375 36.1990625 37.7421875 35.078125 C37.83665846 32.38570255 37.91942581 29.69287416 38 27 C42.29 27 46.58 27 51 27 C51 40.86 51 54.72 51 69 C47.535 69.495 47.535 69.495 44 70 C41.67547376 73.48678936 41.70226266 75.06967571 41.5859375 79.19921875 C41.54726562 80.40771484 41.50859375 81.61621094 41.46875 82.86132812 C41.4378125 84.12396484 41.406875 85.38660156 41.375 86.6875 C41.33632812 87.96173828 41.29765625 89.23597656 41.2578125 90.54882812 C41.16342314 93.69907292 41.0778417 96.84930991 41 100 C6.06559707 96.64471836 -29.2480068 71.83942091 -55.375 49.9375 C-55.91664795 49.4844751 -56.4582959 49.0314502 -57.01635742 48.56469727 C-59.44944481 46.4863448 -61.20920446 44.68619331 -63 42 C-61.88625 41.731875 -60.7725 41.46375 -59.625 41.1875 C-55.78159049 40.34190981 -55.78159049 40.34190981 -54 37 C-53.54605448 34.72087062 -53.54605448 34.72087062 -53.375 32.3125 C-53.25125 30.889375 -53.1275 29.46625 -53 28 C-50.03 28 -47.06 28 -44 28 C-43.95101562 29.19238281 -43.90203125 30.38476562 -43.8515625 31.61328125 C-43.77652396 33.17971068 -43.7009766 34.74611579 -43.625 36.3125 C-43.5940625 37.09818359 -43.563125 37.88386719 -43.53125 38.69335938 C-43.49257812 39.45068359 -43.45390625 40.20800781 -43.4140625 40.98828125 C-43.36693115 42.03302612 -43.36693115 42.03302612 -43.31884766 43.09887695 C-43.07881747 45.32532739 -43.07881747 45.32532739 -41 48 C-38.11506069 48.29159149 -35.44812063 48.39590537 -32.5625 48.36328125 C-31.72662354 48.36377975 -30.89074707 48.36427826 -30.02954102 48.36479187 C-28.26088079 48.36244959 -26.49221734 48.35271197 -24.72363281 48.33618164 C-22.01076568 48.31259361 -19.29888105 48.31561867 -16.5859375 48.32226562 C-14.86978579 48.31668889 -13.15363822 48.30957904 -11.4375 48.30078125 C-10.2155896 48.30214836 -10.2155896 48.30214836 -8.96899414 48.30354309 C-4.51288003 48.4290869 -4.51288003 48.4290869 -1 46 C-0.67002553 43.94092803 -0.67002553 43.94092803 -0.68115234 41.55029297 C-0.66128265 40.62948944 -0.64141296 39.70868591 -0.62094116 38.75997925 C-0.60938995 37.76410797 -0.59783875 36.76823669 -0.5859375 35.7421875 C-0.56657135 34.72399933 -0.5472052 33.70581116 -0.5272522 32.6567688 C-0.46734645 29.39626511 -0.42102701 26.13572633 -0.375 22.875 C-0.33683035 20.66795313 -0.29777923 18.46092131 -0.2578125 16.25390625 C-0.16163606 10.83607089 -0.07662101 5.41814527 0 0 Z " fill="#4C4C4C" transform="translate(152,391)"/>
<path d="M0 0 C6.6 0 13.2 0 20 0 C20 60.06 20 120.12 20 182 C13.4 182 6.8 182 0 182 C0 121.94 0 61.88 0 0 Z " fill="#E4E4E4" transform="translate(277,278)"/>
<path d="M0 0 C6.6 0 13.2 0 20 0 C20 60.06 20 120.12 20 182 C13.4 182 6.8 182 0 182 C0 121.94 0 61.88 0 0 Z " fill="#E4E4E4" transform="translate(215,278)"/>
<path d="M0 0 C9.57 0 19.14 0 29 0 C29 7.59 29 15.18 29 23 C19.12557904 25.34135755 10.11024091 26.52310184 0 27 C0 18.09 0 9.18 0 0 Z " fill="#E4E4E4" transform="translate(277,472)"/>
<path d="M0 0 C9.57 0 19.14 0 29 0 C29 8.91 29 17.82 29 27 C21.73222581 26.39435215 14.85182258 25.78361151 7.75 24.4375 C5.1925 23.963125 2.635 23.48875 0 23 C0 15.41 0 7.82 0 0 Z " fill="#E5E5E5" transform="translate(206,472)"/>
<path d="M0 0 C4.29 0 8.58 0 13 0 C13 11.88 13 23.76 13 36 C8.71 36 4.42 36 0 36 C0 24.12 0 12.24 0 0 Z " fill="#E6E6E6" transform="translate(277,230)"/>
<path d="M0 0 C4.29 0 8.58 0 13 0 C13 11.88 13 23.76 13 36 C8.71 36 4.42 36 0 36 C0 24.12 0 12.24 0 0 Z " fill="#E6E6E6" transform="translate(222,230)"/>
<path d="M0 0 C1.98 0 3.96 0 6 0 C6 19.8 6 39.6 6 60 C4.02 60 2.04 60 0 60 C0 40.2 0 20.4 0 0 Z " fill="#C2C3C3" transform="translate(253,107)"/>
<path d="M0 0 C11.22 0 22.44 0 34 0 C34 1.65 34 3.3 34 5 C22.78 5 11.56 5 0 5 C0 3.35 0 1.7 0 0 Z " fill="#D9D9D9" transform="translate(239,179)"/>
</svg>
